<svg xmlns="http://www.w3.org/2000/svg" version="1.1" xmlnsXlink="http://www.w3.org/1999/xlink" xmlnsSvgjs="http://svgjs.dev/svgjs" viewBox="0 0 800 800"><defs><linearGradient x1="50%" y1="0%" x2="50%" y2="100%" id="ffflurry-grad" gradientTransform="rotate(270)"><stop stop-color="hsl(238, 82%, 100%)" stop-opacity="1" offset="0%"></stop><stop stop-color="#E0C8A6" stop-opacity="1" offset="45%"></stop><stop stop-color="hsl(46, 35%, 81%)" stop-opacity="1" offset="100%"></stop></linearGradient></defs><rect width="100%" height="100%" fill="hsl(238, 82%, 100%)"></rect><g fill="url(#ffflurry-grad)"><rect width="345" height="3" x="-101.5" y="65.5" rx="1.5" transform="rotate(124, 71, 67)" opacity="0.80"></rect><rect width="205" height="3" x="145.5" y="346.5" rx="1.5" transform="rotate(124, 248, 348)" opacity="0.28"></rect><rect width="90" height="3" x="727" y="465.5" rx="1.5" transform="rotate(124, 772, 467)" opacity="1.00"></rect><rect width="92" height="3" x="308" y="540.5" rx="1.5" transform="rotate(124, 354, 542)" opacity="0.46"></rect><rect width="646" height="3" x="-117" y="593.5" rx="1.5" transform="rotate(124, 206, 595)" opacity="0.69"></rect><rect width="222" height="3" x="33" y="25.5" rx="1.5" transform="rotate(124, 144, 27)" opacity="0.92"></rect><rect width="194" height="3" x="484" y="600.5" rx="1.5" transform="rotate(124, 581, 602)" opacity="0.80"></rect><rect width="545" height="3" x="450.5" y="236.5" rx="1.5" transform="rotate(124, 723, 238)" opacity="0.94"></rect><rect width="426" height="3" x="557" y="392.5" rx="1.5" transform="rotate(124, 770, 394)" opacity="0.42"></rect><rect width="488" height="3" x="-199" y="565.5" rx="1.5" transform="rotate(124, 45, 567)" opacity="0.19"></rect><rect width="576" height="3" x="-243" y="464.5" rx="1.5" transform="rotate(124, 45, 466)" opacity="0.33"></rect><rect width="512" height="3" x="12" y="671.5" rx="1.5" transform="rotate(124, 268, 673)" opacity="0.59"></rect><rect width="182" height="3" x="-45" y="17.5" rx="1.5" transform="rotate(124, 46, 19)" opacity="0.14"></rect><rect width="542" height="3" x="231" y="681.5" rx="1.5" transform="rotate(124, 502, 683)" opacity="0.34"></rect><rect width="485" height="3" x="503.5" y="616.5" rx="1.5" transform="rotate(124, 746, 618)" opacity="0.82"></rect><rect width="355" height="3" x="536.5" y="765.5" rx="1.5" transform="rotate(124, 714, 767)" opacity="0.23"></rect><rect width="100" height="3" x="271" y="593.5" rx="1.5" transform="rotate(124, 321, 595)" opacity="0.65"></rect><rect width="384" height="3" x="-125" y="744.5" rx="1.5" transform="rotate(124, 67, 746)" opacity="0.29"></rect><rect width="562" height="3" x="-149" y="184.5" rx="1.5" transform="rotate(124, 132, 186)" opacity="0.68"></rect><rect width="472" height="3" x="281" y="152.5" rx="1.5" transform="rotate(124, 517, 154)" opacity="0.41"></rect><rect width="356" height="3" x="481" y="426.5" rx="1.5" transform="rotate(124, 659, 428)" opacity="0.83"></rect><rect width="268" height="3" x="306" y="147.5" rx="1.5" transform="rotate(124, 440, 149)" opacity="0.50"></rect><rect width="543" height="3" x="-217.5" y="373.5" rx="1.5" transform="rotate(124, 54, 375)" opacity="0.45"></rect><rect width="373" height="3" x="524.5" y="54.5" rx="1.5" transform="rotate(124, 711, 56)" opacity="0.85"></rect><rect width="187" height="3" x="269.5" y="138.5" rx="1.5" transform="rotate(124, 363, 140)" opacity="0.24"></rect><rect width="180" height="3" x="115" y="67.5" rx="1.5" transform="rotate(124, 205, 69)" opacity="0.25"></rect><rect width="331" height="3" x="280.5" y="534.5" rx="1.5" transform="rotate(124, 446, 536)" opacity="0.74"></rect><rect width="247" height="3" x="168.5" y="38.5" rx="1.5" transform="rotate(124, 292, 40)" opacity="0.68"></rect><rect width="433" height="3" x="485.5" y="370.5" rx="1.5" transform="rotate(124, 702, 372)" opacity="0.35"></rect><rect width="139" height="3" x="89.5" y="434.5" rx="1.5" transform="rotate(124, 159, 436)" opacity="0.39"></rect><rect width="447" height="3" x="75.5" y="415.5" rx="1.5" transform="rotate(124, 299, 417)" opacity="0.61"></rect><rect width="127" height="3" x="415.5" y="17.5" rx="1.5" transform="rotate(124, 479, 19)" opacity="1.00"></rect><rect width="420" height="3" x="390" y="451.5" rx="1.5" transform="rotate(124, 600, 453)" opacity="0.93"></rect><rect width="160" height="3" x="45" y="100.5" rx="1.5" transform="rotate(124, 125, 102)" opacity="0.61"></rect><rect width="114" height="3" x="714" y="63.5" rx="1.5" transform="rotate(124, 771, 65)" opacity="0.52"></rect><rect width="438" height="3" x="300" y="556.5" rx="1.5" transform="rotate(124, 519, 558)" opacity="0.91"></rect><rect width="217" height="3" x="-67.5" y="157.5" rx="1.5" transform="rotate(124, 41, 159)" opacity="0.55"></rect><rect width="476" height="3" x="413" y="648.5" rx="1.5" transform="rotate(124, 651, 650)" opacity="0.84"></rect><rect width="252" height="3" x="376" y="763.5" rx="1.5" transform="rotate(124, 502, 765)" opacity="0.55"></rect><rect width="607" height="3" x="-153.5" y="341.5" rx="1.5" transform="rotate(124, 150, 343)" opacity="0.27"></rect><rect width="346" height="3" x="189" y="678.5" rx="1.5" transform="rotate(124, 362, 680)" opacity="0.74"></rect><rect width="374" height="3" x="285" y="71.5" rx="1.5" transform="rotate(124, 472, 73)" opacity="0.21"></rect><rect width="160" height="3" x="138" y="748.5" rx="1.5" transform="rotate(124, 218, 750)" opacity="0.59"></rect><rect width="286" height="3" x="-50" y="650.5" rx="1.5" transform="rotate(124, 93, 652)" opacity="0.24"></rect><rect width="804" height="3" x="-199" y="247.5" rx="1.5" transform="rotate(124, 203, 249)" opacity="0.18"></rect><rect width="388" height="3" x="345" y="49.5" rx="1.5" transform="rotate(124, 539, 51)" opacity="0.69"></rect><rect width="249" height="3" x="280.5" y="86.5" rx="1.5" transform="rotate(124, 405, 88)" opacity="0.42"></rect><rect width="817" height="3" x="-352.5" y="269.5" rx="1.5" transform="rotate(124, 56, 271)" opacity="0.94"></rect><rect width="111" height="3" x="675.5" y="160.5" rx="1.5" transform="rotate(124, 731, 162)" opacity="0.14"></rect><rect width="334" height="3" x="240" y="310.5" rx="1.5" transform="rotate(124, 407, 312)" opacity="0.49"></rect><rect width="656" height="3" x="-3" y="263.5" rx="1.5" transform="rotate(124, 325, 265)" opacity="0.69"></rect><rect width="317" height="3" x="92.5" y="133.5" rx="1.5" transform="rotate(124, 251, 135)" opacity="0.15"></rect><rect width="52" height="3" x="434" y="221.5" rx="1.5" transform="rotate(124, 460, 223)" opacity="0.62"></rect><rect width="114" height="3" x="544" y="734.5" rx="1.5" transform="rotate(124, 601, 736)" opacity="0.93"></rect><rect width="140" height="3" x="309" y="33.5" rx="1.5" transform="rotate(124, 379, 35)" opacity="0.86"></rect><rect width="286" height="3" x="379" y="391.5" rx="1.5" transform="rotate(124, 522, 393)" opacity="0.17"></rect><rect width="37" height="3" x="485.5" y="476.5" rx="1.5" transform="rotate(124, 504, 478)" opacity="0.65"></rect><rect width="104" height="3" x="663" y="470.5" rx="1.5" transform="rotate(124, 715, 472)" opacity="0.48"></rect><rect width="391" height="3" x="475.5" y="541.5" rx="1.5" transform="rotate(124, 671, 543)" opacity="0.75"></rect><rect width="292" height="3" x="430" y="514.5" rx="1.5" transform="rotate(124, 576, 516)" opacity="0.51"></rect><rect width="533" height="3" x="184.5" y="620.5" rx="1.5" transform="rotate(124, 451, 622)" opacity="0.41"></rect><rect width="380" height="3" x="396" y="136.5" rx="1.5" transform="rotate(124, 586, 138)" opacity="0.49"></rect><rect width="65" height="3" x="622.5" y="25.5" rx="1.5" transform="rotate(124, 655, 27)" opacity="0.25"></rect><rect width="132" height="3" x="678" y="306.5" rx="1.5" transform="rotate(124, 744, 308)" opacity="0.18"></rect><rect width="107" height="3" x="594.5" y="111.5" rx="1.5" transform="rotate(124, 648, 113)" opacity="0.37"></rect><rect width="539" height="3" x="88.5" y="465.5" rx="1.5" transform="rotate(124, 358, 467)" opacity="0.53"></rect><rect width="391" height="3" x="188.5" y="754.5" rx="1.5" transform="rotate(124, 384, 756)" opacity="0.73"></rect><rect width="389" height="3" x="245.5" y="420.5" rx="1.5" transform="rotate(124, 440, 422)" opacity="0.87"></rect><rect width="484" height="3" x="-80" y="515.5" rx="1.5" transform="rotate(124, 162, 517)" opacity="0.18"></rect><rect width="175" height="3" x="421.5" y="306.5" rx="1.5" transform="rotate(124, 509, 308)" opacity="0.40"></rect><rect width="246" height="3" x="187" y="183.5" rx="1.5" transform="rotate(124, 310, 185)" opacity="0.27"></rect><rect width="150" height="3" x="539" y="332.5" rx="1.5" transform="rotate(124, 614, 334)" opacity="0.37"></rect><rect width="418" height="3" x="541" y="701.5" rx="1.5" transform="rotate(124, 750, 703)" opacity="0.31"></rect><rect width="90" height="3" x="548" y="41.5" rx="1.5" transform="rotate(124, 593, 43)" opacity="0.36"></rect><rect width="48" height="3" x="-5" y="75.5" rx="1.5" transform="rotate(124, 19, 77)" opacity="0.08"></rect><rect width="457" height="3" x="535.5" y="539.5" rx="1.5" transform="rotate(124, 764, 541)" opacity="0.97"></rect><rect width="439" height="3" x="375.5" y="229.5" rx="1.5" transform="rotate(124, 595, 231)" opacity="0.84"></rect></g></svg>
