<svg xmlns="http://www.w3.org/2000/svg" version="1.1" xmlnsXlink="http://www.w3.org/1999/xlink" xmlnsSvgjs="http://svgjs.dev/svgjs" viewBox="0 0 800 800"><g fill="#AAB48A"><path d="M300 402H350C378 402 400 424 400 452H350C322 452 300 430 300 402Z " transform="matrix(-0.20669658463568433,0.2216549498322765,-0.2216549498322765,-0.20669658463568433,516.9904682008716,437.6802091981404)"></path><path d="M54 408H104C132 408 154 430 154 458H104C76 458 54 436 54 408Z " transform="matrix(0.038482174658022575,0.21824325751739668,-0.21824325751739668,0.038482174658022575,194.49718434059847,393.63991959126696)"></path><path d="M463 435H513C541 435 563 457 563 485H513C485 485 463 463 463 435Z " transform="matrix(-0.2585319596539181,0.18783446353713767,-0.18783446353713767,-0.2585319596539181,732.0307485295432,482.5656216462507)"></path><path d="M714 459H764C792 459 814 481 814 509H764C736 509 714 487 714 459Z " transform="matrix(-0.3717388474975727,0.012981406604590595,-0.012981406604590595,-0.3717388474975727,1054.2914802847674,654.0038075429179)"></path><path d="M276 670H326C354 670 376 692 376 720H326C298 720 276 698 276 670Z " transform="matrix(-0.19227693927826858,0.22914673315789533,-0.22914673315789533,-0.19227693927826858,547.9392617494527,753.9306377889228)"></path><path d="M714 733H764C792 733 814 755 814 783H764C736 783 714 761 714 733Z " transform="matrix(-0.3717388474975727,0.012981406604590595,-0.012981406604590595,-0.3717388474975727,1057.8483856944251,1029.8602517572529)"></path><path d="M658 338H708C736 338 758 360 758 388H708C680 388 658 366 658 338Z " transform="matrix(-0.3431451632068362,0.08555569822765775,-0.08555569822765775,-0.3431451632068362,982.0034940070798,426.98825989889986)"></path><path d="M395 735H445C473 735 495 757 495 785H445C417 785 395 763 395 735Z " transform="matrix(-0.2494677739325198,0.1949055860501049,-0.1949055860501049,-0.2494677739325198,704.1414047980511,862.8625223964183)"></path><path d="M543 153H593C621 153 643 175 643 203H593C565 203 543 181 543 153Z " transform="matrix(-0.33008483677190753,0.1072510648950167,-0.1072510648950167,-0.33008483677190753,807.8309977570541,173.15521946265463)"></path><path d="M668 167H718C746 167 768 189 768 217H718C690 217 668 195 668 167Z " transform="matrix(-0.3541392285278551,0.06244430091674175,-0.06244430091674175,-0.3541392285278551,984.2612718590144,215.1597238191276)"></path><path d="M-7 673H43C71 673 93 695 93 723H43C15 723 -7 701 -7 673Z " transform="matrix(0.0679686656210855,0.19739533803786719,-0.19739533803786719,0.0679686656210855,177.85929332872462,642.069871860854)"></path><path d="M157 152H207C235 152 257 174 257 202H207C179 202 157 180 157 152Z " transform="matrix(-0.07681070583017494,0.25123649829224287,-0.25123649829224287,-0.07681070583017494,267.36867630457317,138.5895397854467)"></path><path d="M412 77H462C490 77 512 99 512 127H462C434 127 412 105 412 77Z " transform="matrix(-0.3761769242432305,-0.006566192637162655,0.006566192637162655,-0.3761769242432305,635.1239873513819,143.40362727117866)"></path><path d="M716 292H766C794 292 816 314 816 342H766C738 342 716 320 716 292Z " transform="matrix(-0.3717388474975727,0.012981406604590595,-0.012981406604590595,-0.3717388474975727,1054.8670630767958,424.89745719761413)"></path><path d="M133 228H183C211 228 233 250 233 278H183C155 278 133 256 133 228Z " transform="matrix(-0.021363432848381315,0.244185154823528,-0.244185154823528,-0.021363432848381315,248.68835238160636,213.71906517793485)"></path><path d="M659 74H709C737 74 759 96 759 124H709C681 124 659 102 659 74Z " transform="matrix(-0.11889941809021548,-0.476879519084743,0.476879519084743,-0.11889941809021548,746.0886150365732,448.8786214220141)"></path><path d="M715 380H765C793 380 815 402 815 430H765C737 430 715 408 715 380Z " transform="matrix(-0.3717388474975727,0.012981406604590595,-0.012981406604590595,-0.3717388474975727,1054.6376880105022,545.6234571840052)"></path><path d="M346 197H396C424 197 446 219 446 247H396C368 247 346 225 346 197Z " transform="matrix(-0.2353306862040305,0.20456984451835578,-0.20456984451835578,-0.2353306862040305,534.6054572198711,193.2337539080259)"></path><path d="M7 743H57C85 743 107 765 107 793H57C29 793 7 771 7 743Z " transform="matrix(0.06511609207947855,0.200406724598199,-0.200406724598199,0.06511609207947855,207.20074724288656,706.5676579808631)"></path><path d="M357 658H407C435 658 457 680 457 708H407C379 708 357 686 357 658Z " transform="matrix(-0.24037284689307944,0.20169676717301585,-0.20169676717301585,-0.24037284689307944,642.5906406646533,765.0840701885558)"></path></g><g fill="none" stroke-width="3" stroke="#89c400"><path d="M-12 296H38C66 296 88 318 88 346H38C10 346 -12 324 -12 296Z " transform="matrix(0.0679686656210855,0.19739533803786719,-0.19739533803786719,0.0679686656210855,98.78109421655412,291.6810354901926)"></path><path d="M482 183H532C560 183 582 205 582 233H532C504 233 482 211 482 183Z " transform="matrix(-0.25909126561810614,0.18824082310628734,-0.18824082310628734,-0.25909126561810614,708.9906445149402,161.7468653560212)"></path><path d="M212 359H262C290 359 312 381 312 409H262C234 409 212 387 212 359Z " transform="matrix(-0.12634594565402768,0.2479678802685776,-0.2479678802685776,-0.12634594565402768,390.3223037844891,367.5492585007793)"></path><path d="M-17 520H33C61 520 83 542 83 570H33C5 570 -17 548 -17 520Z " transform="matrix(0.07103986532967765,0.19518042587438658,-0.19518042587438658,0.07103986532967765,137.02901654566128,499.8423193414709)"></path><path d="M414 224H464C492 224 514 246 514 274H464C436 274 414 252 414 224Z " transform="matrix(-0.2502199613171778,0.19549325924217786,-0.19549325924217786,-0.2502199613171778,628.7798836024728,220.5958980796067)"></path><path d="M552 734H602C630 734 652 756 652 784H602C574 784 552 762 552 734Z " transform="matrix(-0.2810248575451064,0.1688567698666847,-0.1688567698666847,-0.2810248575451064,899.3392525709676,870.6460914169917)"></path><path d="M277 171H327C355 171 377 193 377 221H327C299 221 277 199 277 171Z " transform="matrix(-0.19227693927826858,0.22914673315789533,-0.22914673315789533,-0.19227693927826858,434.7873188429413,158.75529835590885)"></path><path d="M612 121H662C690 121 712 143 712 171H662C634 171 612 149 612 121Z " transform="matrix(-0.37633139249705094,-0.1675535311217925,0.1675535311217925,-0.37633139249705094,886.6685662892661,311.8648209071961)"></path><path d="M84 687H134C162 687 184 709 184 737H134C106 737 84 715 84 687Z " transform="matrix(0.012163855049185785,0.23210018084322634,-0.23210018084322634,0.012163855049185785,297.6253721837862,672.2379109719874)"></path><path d="M629 740H679C707 740 729 762 729 790H679C651 790 629 768 629 740Z " transform="matrix(-0.3201046076901331,0.12287664634136325,-0.12287664634136325,-0.3201046076901331,990.3516630727432,926.4467820171662)"></path><path d="M37 3H87C115 3 137 25 137 53H87C59 53 37 31 37 3Z " transform="matrix(-0.3466310933309105,0.08002609350518347,-0.08002609350518347,-0.3466310933309105,119.39763573793435,30.743400478314534)"></path><path d="M177 420H227C255 420 277 442 277 470H227C199 470 177 448 177 420Z " transform="matrix(-0.0820273536806991,0.25245423602113964,-0.25245423602113964,-0.0820273536806991,357.9623443149258,424.1950608111124)"></path><path d="M56 340H106C134 340 156 362 156 390H106C78 390 56 368 56 340Z " transform="matrix(0.038482174658022575,0.21824325751739668,-0.21824325751739668,0.038482174658022575,181.5796784800994,327.8202209529777)"></path><path d="M-22 10H28C56 10 78 32 78 60H28C0 60 -22 38 -22 10Z " transform="matrix(-0.30070465285654724,0.14666345873152248,-0.14666345873152248,-0.30070465285654724,41.5529513355866,41.41808600549652)"></path></g></svg>
