<svg xmlns="http://www.w3.org/2000/svg" version="1.1" xmlnsXlink="http://www.w3.org/1999/xlink" xmlnsSvgjs="http://svgjs.dev/svgjs" viewBox="0 0 800 800" opacity="0.92"><defs><linearGradient x1="50%" y1="0%" x2="50%" y2="100%" id="vvvortex-grad"><stop stop-color="#015657" stop-opacity="1" offset="0%"></stop><stop stop-color="#89C400" stop-opacity="1" offset="100%"></stop></linearGradient></defs><g stroke="url(#vvvortex-grad)" fill="none" stroke-linecap="square"><circle r="528" cx="400" cy="400" stroke-width="5" stroke-dasharray="49 25" stroke-dashoffset="25" transform="rotate(185, 400, 400)" opacity="1.00"></circle><circle r="504" cx="400" cy="400" stroke-width="5" stroke-dasharray="53 25" stroke-dashoffset="25" transform="rotate(299, 400, 400)" opacity="0.95"></circle><circle r="480" cx="400" cy="400" stroke-width="5" stroke-dasharray="50 50" stroke-dashoffset="25" transform="rotate(112, 400, 400)" opacity="0.91"></circle><circle r="456" cx="400" cy="400" stroke-width="4" stroke-dasharray="38 50" stroke-dashoffset="25" transform="rotate(85, 400, 400)" opacity="0.86"></circle><circle r="432" cx="400" cy="400" stroke-width="4" stroke-dasharray="41 33" stroke-dashoffset="25" transform="rotate(165, 400, 400)" opacity="0.82"></circle><circle r="408" cx="400" cy="400" stroke-width="4" stroke-dasharray="41 20" stroke-dashoffset="25" transform="rotate(296, 400, 400)" opacity="0.77"></circle><circle r="384" cx="400" cy="400" stroke-width="4" stroke-dasharray="19 31" stroke-dashoffset="25" transform="rotate(125, 400, 400)" opacity="0.73"></circle><circle r="360" cx="400" cy="400" stroke-width="4" stroke-dasharray="40 27" stroke-dashoffset="25" transform="rotate(145, 400, 400)" opacity="0.68"></circle><circle r="336" cx="400" cy="400" stroke-width="3" stroke-dasharray="24 39" stroke-dashoffset="25" transform="rotate(164, 400, 400)" opacity="0.64"></circle><circle r="312" cx="400" cy="400" stroke-width="3" stroke-dasharray="20 13" stroke-dashoffset="25" transform="rotate(249, 400, 400)" opacity="0.59"></circle><circle r="288" cx="400" cy="400" stroke-width="3" stroke-dasharray="20 35" stroke-dashoffset="25" transform="rotate(9, 400, 400)" opacity="0.55"></circle><circle r="264" cx="400" cy="400" stroke-width="3" stroke-dasharray="55 25" stroke-dashoffset="25" transform="rotate(342, 400, 400)" opacity="0.50"></circle><circle r="240" cx="400" cy="400" stroke-width="3" stroke-dasharray="45 28" stroke-dashoffset="25" transform="rotate(155, 400, 400)" opacity="0.46"></circle><circle r="216" cx="400" cy="400" stroke-width="3" stroke-dasharray="27 40" stroke-dashoffset="25" transform="rotate(340, 400, 400)" opacity="0.41"></circle><circle r="192" cx="400" cy="400" stroke-width="2" stroke-dasharray="14 37" stroke-dashoffset="25" transform="rotate(192, 400, 400)" opacity="0.37"></circle><circle r="168" cx="400" cy="400" stroke-width="2" stroke-dasharray="25 45" stroke-dashoffset="25" transform="rotate(62, 400, 400)" opacity="0.32"></circle><circle r="144" cx="400" cy="400" stroke-width="2" stroke-dasharray="11 21" stroke-dashoffset="25" transform="rotate(287, 400, 400)" opacity="0.28"></circle><circle r="120" cx="400" cy="400" stroke-width="2" stroke-dasharray="53 46" stroke-dashoffset="25" transform="rotate(51, 400, 400)" opacity="0.23"></circle><circle r="96" cx="400" cy="400" stroke-width="2" stroke-dasharray="15 31" stroke-dashoffset="25" transform="rotate(35, 400, 400)" opacity="0.19"></circle><circle r="72" cx="400" cy="400" stroke-width="1" stroke-dasharray="23 17" stroke-dashoffset="25" transform="rotate(320, 400, 400)" opacity="0.14"></circle><circle r="48" cx="400" cy="400" stroke-width="1" stroke-dasharray="50 51" stroke-dashoffset="25" transform="rotate(312, 400, 400)" opacity="0.10"></circle><circle r="24" cx="400" cy="400" stroke-width="1" stroke-dasharray="48 13" stroke-dashoffset="25" transform="rotate(148, 400, 400)" opacity="0.05"></circle></g></svg>
